<?xml version="1.0" encoding="UTF-8" standalone="no"?>
<!-- Created with Inkscape (http://www.inkscape.org/) -->

<svg
   xmlns:dc="http://purl.org/dc/elements/1.1/"
   xmlns:cc="http://creativecommons.org/ns#"
   xmlns:rdf="http://www.w3.org/1999/02/22-rdf-syntax-ns#"
   xmlns:svg="http://www.w3.org/2000/svg"
   xmlns="http://www.w3.org/2000/svg"
   xmlns:sodipodi="http://sodipodi.sourceforge.net/DTD/sodipodi-0.dtd"
   xmlns:inkscape="http://www.inkscape.org/namespaces/inkscape"
   width="88mm"
   height="32mm"
   viewBox="0 0 88 32"
   version="1.1"
   id="svg5229"
   inkscape:version="0.92.5 (2060ec1f9f, 2020-04-08)"
   sodipodi:docname="creative_commons.svg">
  <defs
     id="defs5223" />
  <sodipodi:namedview
     id="base"
     pagecolor="#ffffff"
     bordercolor="#666666"
     borderopacity="1.0"
     inkscape:pageopacity="0.0"
     inkscape:pageshadow="2"
     inkscape:zoom="1.4"
     inkscape:cx="735.74906"
     inkscape:cy="-51.757754"
     inkscape:document-units="mm"
     inkscape:current-layer="layer1"
     showgrid="false"
     inkscape:window-width="3696"
     inkscape:window-height="2032"
     inkscape:window-x="144"
     inkscape:window-y="54"
     inkscape:window-maximized="1" />
  <metadata
     id="metadata5226">
    <rdf:RDF>
      <cc:Work
         rdf:about="">
        <dc:format>image/svg+xml</dc:format>
        <dc:type
           rdf:resource="http://purl.org/dc/dcmitype/StillImage" />
        <dc:title />
      </cc:Work>
    </rdf:RDF>
  </metadata>
  <g
     inkscape:label="Layer 1"
     inkscape:groupmode="layer"
     id="layer1"
     transform="translate(0,-265)">
    <path
       style="fill:#40babd;fill-opacity:1;stroke-width:0.26458335"
       d="m 18.399014,267.69155 c -3.254698,-0.0364 -6.517322,1.13575 -8.9916994,3.61012 -5.233506,5.23348 -5.1679033,13.51562 0.1462447,18.48672 1.9968187,1.86792 3.7643777,2.84419 6.0497587,3.3414 2.125041,0.46197 3.355311,0.46308 5.521111,0.004 8.700489,-1.84366 12.915905,-11.99783 8.097697,-19.50631 -2.466845,-3.84422 -6.638502,-5.88928 -10.823112,-5.93607 z m 0.0098,2.41536 c 2.614628,0 2.898095,0.0539 4.544425,0.86455 2.2469,1.10635 4.433078,3.40727 5.267378,5.54281 0.85099,2.17824 0.85776,5.6921 0.01447,7.81348 -1.03745,2.60983 -3.731091,5.12835 -6.5288,6.10453 h -5.19e-4 c -4.996439,1.74338 -10.42861,-0.60435 -12.8689801,-5.56142 -0.8105407,-1.64642 -0.8805647,-1.98786 -0.8805647,-4.30723 0,-2.28277 0.0792,-2.68592 0.8428397,-4.29792 1.1235104,-2.37167 2.9059841,-4.23214 5.0782431,-5.30097 1.631121,-0.80258 1.921777,-0.85783 4.531508,-0.85783 z m -3.565657,6.53293 c -1.334471,-0.002 -2.700253,0.59063 -3.345013,1.64796 -0.605602,0.99311 -0.666798,3.29539 -0.115756,4.36098 0.403609,0.78048 1.27316,1.46461 2.141469,1.68517 1.47234,0.374 3.012205,-0.0612 3.953764,-1.11725 0.51834,-0.58135 0.51898,-0.59496 0.01602,-0.96273 -0.59757,-0.43696 -1.203026,-0.48815 -1.203026,-0.1018 0,0.44763 -1.261946,0.79742 -1.943034,0.53847 -1.478722,-0.56221 -1.560534,-3.4293 -0.120923,-4.23437 0.661969,-0.3702 0.771904,-0.35604 1.509985,0.18965 0.68185,0.50411 0.893818,0.54361 1.478979,0.27699 0.82478,-0.37579 0.769604,-0.90862 -0.166915,-1.60714 -0.615262,-0.4589 -1.404866,-0.67449 -2.20555,-0.67593 z m 7.474998,0.01 c -0.999699,-2e-4 -2.010453,0.36766 -2.746603,1.10381 -1.90451,1.90449 -1.331394,5.35526 1.062466,6.39754 v -5.1e-4 c 0.448911,0.19545 1.113629,0.35766 1.477431,0.35966 0.932119,0.006 2.815338,-0.89886 3.142959,-1.51102 0.229341,-0.42853 0.163727,-0.56486 -0.395325,-0.81958 -0.564009,-0.25698 -0.778827,-0.22103 -1.348237,0.22686 -0.851429,0.66969 -1.156761,0.66709 -2.0252,-0.016 -0.562049,-0.44211 -0.697114,-0.77111 -0.697114,-1.69809 0,-1.50817 0.202033,-1.97599 0.979784,-2.2717 0.638871,-0.24289 1.597837,0.0577 1.961637,0.61444 0.09579,0.14656 0.5173,0.0667 1.019061,-0.19276 l 0.85576,-0.44235 -0.606163,-0.64544 c -0.691922,-0.73632 -1.68076,-1.10463 -2.680456,-1.10484 z"
       id="path5416"
       inkscape:connector-curvature="0" />
    <path
       style="fill:#4d4d4d;fill-opacity:1;stroke-width:0.26458335"
       d="m 60.87748,270.42766 c -0.804661,0 -0.926042,0.0844 -0.926042,0.64389 0,0.50344 0.158703,0.664 0.727605,0.7369 0.972679,0.12454 1.124479,0.0256 1.124479,-0.73484 0,-0.56174 -0.120624,-0.64595 -0.926042,-0.64595 z m -3.704166,0.52916 c -0.881952,0 -0.926042,0.0441 -0.926042,0.92605 0,0.64676 -0.119676,0.92604 -0.396875,0.92604 -0.22048,0 -0.396875,0.2352 -0.396875,0.52916 0,0.29105 0.166097,0.52917 0.368969,0.52917 0.276059,0 0.39242,0.52194 0.463021,2.07584 0.05635,1.24106 0.240345,2.2521 0.457335,2.51355 0.223401,0.26919 0.757137,0.43769 1.388547,0.43769 0.90456,0 1.026294,-0.075 1.026294,-0.63096 0,-0.40809 -0.186727,-0.67935 -0.529166,-0.76895 -0.461661,-0.12073 -0.529167,-0.36054 -0.529167,-1.88257 0,-1.56817 0.05351,-1.7446 0.529167,-1.7446 0.352779,0 0.529166,-0.17639 0.529166,-0.52917 0,-0.35277 -0.176387,-0.52916 -0.529166,-0.52916 -0.428361,0 -0.529167,-0.17639 -0.529167,-0.92604 0,-0.88193 -0.04411,-0.92605 -0.926041,-0.92605 z m -21.229196,1.5875 c -0.99078,0 -1.326062,0.14527 -2.080493,0.89969 -0.811781,0.81177 -0.899686,1.04601 -0.899686,2.40141 0,1.30733 0.09992,1.60215 0.773078,2.27531 0.64943,0.64943 0.986618,0.77359 2.102197,0.77359 1.04323,0 1.487725,-0.14208 2.070676,-0.66197 0.722419,-0.64428 0.72848,-0.6727 0.231511,-1.05627 -0.452411,-0.34916 -0.560285,-0.34918 -0.946714,5.2e-4 -0.56253,0.50911 -1.691574,0.50684 -2.115632,-0.004 -0.449961,-0.54216 -0.466841,-2.34413 -0.02687,-2.87425 0.45294,-0.54574 1.306904,-0.55291 1.900145,-0.016 0.38639,0.34962 0.546095,0.36055 1.013373,0.0687 0.716081,-0.4472 0.699214,-0.59614 -0.142626,-1.25832 -0.468871,-0.36881 -1.084395,-0.54829 -1.878955,-0.54829 z m 31.319017,0 c -1.00558,0 -0.958241,-0.0752 -1.502751,2.38125 -0.177408,0.80037 -0.388088,1.56813 -0.468188,1.70636 -0.08012,0.13822 -0.392121,-0.6952 -0.692981,-1.85208 -0.532749,-2.04849 -0.569161,-2.10573 -1.406631,-2.18643 -0.62793,-0.0606 -0.859896,0.0253 -0.859896,0.31781 0,0.39509 1.687815,5.23872 2.003494,5.74952 0.08945,0.14477 0.528503,0.22701 0.975651,0.18242 0.836282,-0.0834 1.047861,-0.53582 2.725934,-5.82291 0.125849,-0.39647 -0.0034,-0.47594 -0.774632,-0.47594 z m 3.779097,0.016 c -0.52547,0.002 -1.063329,0.12078 -1.550292,0.37259 -0.873739,0.45182 -1.338418,1.57813 -1.338418,3.24322 0,0.94201 0.151159,1.32267 0.773078,1.94458 0.641601,0.6416 0.99101,0.77338 2.050521,0.77256 1.266711,-9.8e-4 2.997234,-0.75678 2.997234,-1.30896 0,-0.14254 -0.237694,-0.38613 -0.528135,-0.54157 -0.41897,-0.22421 -0.686303,-0.16583 -1.292944,0.28267 -0.867418,0.64132 -1.717334,0.52032 -2.160075,-0.30696 -0.454019,-0.84833 -0.06457,-1.03456 2.162144,-1.03456 2.351008,0 2.276972,0.0955 1.499131,-1.93063 -0.360579,-0.93926 -1.456205,-1.49773 -2.612244,-1.49294 z m -24.711152,0.007 c -0.19486,-0.002 -0.423987,0.0135 -0.707967,0.0408 -1.588658,0.15265 -2.198039,0.67774 -2.58899,2.23035 -0.3722,1.47814 -0.02544,2.74386 0.964801,3.52278 1.07755,0.84759 3.017708,0.73538 4.106209,-0.23719 l 0.861962,-0.76998 -0.696598,-0.31729 c -0.603879,-0.27514 -0.770525,-0.24336 -1.254704,0.24081 -0.70248,0.70244 -1.204368,0.70611 -1.897557,0.0129 -0.895483,-0.89548 -0.521566,-1.16732 1.723924,-1.25212 l 2.06189,-0.078 -0.155546,-0.98031 c -0.101341,-0.63763 -0.450077,-1.24515 -0.996839,-1.73787 -0.556178,-0.50121 -0.835998,-0.6686 -1.420585,-0.6749 z m 5.492689,0.003 c -0.683006,0.004 -1.007073,0.13694 -1.463476,0.49712 -0.400183,0.31581 -0.727604,0.74416 -0.727604,0.95188 0,0.51111 1.424212,0.49642 1.852083,-0.0191 0.425328,-0.51251 1.16649,-0.50765 1.5968,0.0109 0.445881,0.53723 0.150021,0.77269 -1.464508,1.16375 -0.727612,0.17623 -1.531279,0.50854 -1.785938,0.73845 -0.58484,0.52801 -0.598503,1.86418 -0.02532,2.49753 0.49058,0.54208 2.178939,0.65988 3.018938,0.21032 0.35278,-0.18879 0.512114,-0.18879 0.512114,0 0,0.15065 0.35719,0.27388 0.79375,0.27388 h 0.79375 v -2.59519 c 0,-3.2626 -0.174146,-3.54464 -2.279965,-3.69538 -0.325535,-0.0233 -0.592952,-0.0356 -0.820621,-0.0341 z m 8.259961,0.10697 -0.07493,3.10885 -0.07441,3.10885 h 0.943097 0.942578 l -0.07441,-3.10885 -0.07441,-3.10885 h -0.79375 z m -17.765326,0.091 c -0.02973,6.3e-4 -0.06103,0.006 -0.09405,0.0145 -0.218291,0.0581 -0.962427,0.0877 -1.653645,0.0661 l -1.256771,-0.0393 v 3.04271 3.0427 h 0.782381 0.782896 l 0.077,-2.05052 c 0.07681,-2.03825 0.08269,-2.05295 0.949812,-2.43447 0.702461,-0.30906 0.857052,-0.51522 0.79375,-1.05834 -0.04578,-0.39284 -0.173254,-0.58782 -0.381373,-0.58342 z m 28.745534,1.09967 c 0.504331,0 0.874073,0.18487 1.058334,0.52917 0.265898,0.49686 0.201205,0.52916 -1.058334,0.52916 -1.259551,0 -1.324223,-0.0323 -1.058333,-0.52916 0.184259,-0.3443 0.553982,-0.52917 1.058333,-0.52917 z m -25.247554,0.0305 c 0.523107,1.2e-4 1.054864,0.21408 1.121378,0.56482 0.07326,0.38621 -0.112943,0.46302 -1.122413,0.46302 -1.247,0 -1.491588,-0.23084 -0.828889,-0.78083 0.205473,-0.17052 0.516059,-0.24708 0.829924,-0.24701 z m 6.819222,2.08514 c 0.123182,0.003 0.244523,0.0258 0.365869,0.0672 0.327678,0.11166 0.05756,1.10505 -0.395843,1.45521 -0.57539,0.44436 -0.985137,0.41622 -1.410767,-0.0966 -0.30394,-0.36624 -0.266657,-0.4984 0.261483,-0.92604 0.426609,-0.34545 0.809712,-0.50923 1.179258,-0.49972 z m -16.639812,5.81102 c -0.748422,0.0141 -1.463543,0.27171 -2.010214,0.76016 -0.702609,0.62778 -0.858147,0.98345 -0.958596,2.1947 -0.1059,1.27713 -0.037,1.54469 0.591695,2.29185 0.39143,0.46517 1.088896,0.94599 1.549776,1.06867 1.85492,0.49372 4.469289,-1.06683 3.055109,-1.82367 -0.421719,-0.2257 -0.643239,-0.19745 -1.003038,0.12816 -1.4587,1.3201 -3.146041,-0.8772 -2.13062,-2.7745 0.340741,-0.63667 1.714603,-0.69331 2.055172,-0.0848 0.194209,0.34702 0.345535,0.37005 0.807185,0.12299 0.790872,-0.42326 0.708163,-0.99286 -0.212907,-1.46917 -0.559356,-0.28924 -1.161455,-0.42544 -1.743562,-0.41444 z m 16.995346,0.005 c -0.496692,-0.009 -0.956572,0.091 -1.181841,0.31626 -0.237389,0.23736 -0.470175,0.23736 -0.991155,0 -0.83484,-0.38035 -1.849324,-0.39851 -2.509922,-0.045 -0.331373,0.17734 -0.549783,0.17734 -0.659392,0 -0.09018,-0.14591 -0.514091,-0.2651 -0.942063,-0.2651 h -0.778245 v 3.175 3.175 h 0.915704 0.915707 l 0.07648,-2.2872 c 0.05983,-1.79004 0.172252,-2.34775 0.517281,-2.5647 0.319292,-0.20076 0.556387,-0.1811 0.859896,0.0708 0.32176,0.26705 0.419098,0.86631 0.419098,2.58124 v 2.23293 l 0.859895,-0.0827 0.859896,-0.0827 0.07597,-2.30064 c 0.06746,-2.03571 0.137649,-2.31974 0.608229,-2.4691 1.003731,-0.31856 1.300181,0.29745 1.300181,2.70217 v 2.23345 l 0.859896,-0.0832 0.859896,-0.0827 0.07545,-2.57039 c 0.06739,-2.29067 0.01704,-2.6288 -0.463021,-3.10885 -0.339889,-0.33989 -1.039331,-0.53278 -1.677932,-0.54467 z m 15.679145,0.006 c -2.06883,0 -3.171095,1.13743 -3.153296,3.25355 0.01107,1.31317 0.468624,2.24259 1.342554,2.72696 0.347771,0.19276 1.146021,0.35467 1.774052,0.35967 2.10616,0.0173 3.20889,-0.9946 3.217892,-2.95434 0.01094,-2.31267 -0.997321,-3.38584 -3.181202,-3.38584 z m -26.353429,0.001 c -1.773272,10e-4 -2.89253,0.72225 -3.2644,2.10324 -0.41815,1.55287 0.04087,3.06042 1.134814,3.72742 0.531159,0.32387 1.324335,0.51667 2.129586,0.51728 1.107239,8.6e-4 1.406602,-0.12246 2.182813,-0.89866 0.79239,-0.79239 0.899686,-1.06342 0.899686,-2.27531 0,-1.21189 -0.107296,-1.48292 -0.899686,-2.27531 -0.776211,-0.7762 -1.075574,-0.8995 -2.182813,-0.89866 z m 38.659139,0.0114 c -0.639091,0.004 -0.878623,0.17378 -1.434024,0.72916 -0.442859,0.44286 -0.805116,0.97987 -0.805116,1.19321 0,0.75158 0.940332,1.53161 2.24844,1.86448 1.673111,0.42577 2.020612,1.22783 0.531751,1.22783 -0.52955,0 -1.193376,-0.12324 -1.474845,-0.27388 -0.355301,-0.19045 -0.673394,-0.18731 -1.040763,0.009 -0.7395,0.39576 -0.663133,0.66142 0.330729,1.15135 v 5.2e-4 c 1.002149,0.49402 2.805325,0.56272 3.728453,0.14211 0.929331,-0.42344 1.340451,-1.45258 0.953431,-2.38693 -0.168931,-0.40785 -0.502546,-0.79772 -0.741558,-0.86662 -0.239009,-0.0689 -0.940617,-0.2562 -1.559076,-0.41599 -1.346602,-0.34792 -1.557797,-1.06402 -0.313676,-1.06402 0.446129,0 1.026662,0.11547 1.289843,0.25631 0.356831,0.19097 0.589399,0.13314 0.915189,-0.22686 0.398121,-0.43999 0.400021,-0.51355 0.01757,-0.83095 -0.23077,-0.19152 -1.062202,-0.40154 -1.847432,-0.46664 -0.32825,-0.0272 -0.585888,-0.0438 -0.798917,-0.0424 z m -24.235214,0.0186 c -0.08875,-0.003 -0.178531,2.2e-4 -0.264584,0.0124 -0.612568,0.0867 -0.627732,0.15494 -0.700733,3.19774 l -0.07441,3.10937 h 0.924491 0.923976 l 0.07648,-2.2872 c 0.08007,-2.39556 0.403445,-3.02654 1.363226,-2.65824 0.356539,0.13681 0.433049,0.5872 0.433049,2.5554 v 2.39004 h 0.915704 0.915707 l 0.07648,-2.2872 c 0.05983,-1.79004 0.172251,-2.34775 0.517281,-2.5647 0.319281,-0.20076 0.556377,-0.18111 0.859896,0.0708 0.32136,0.26666 0.419097,0.86456 0.419097,2.56418 v 2.21692 h 0.926042 0.926042 v -2.7373 c 0,-2.37772 -0.06803,-2.79832 -0.51625,-3.20394 -0.400449,-0.36237 -0.770633,-0.42928 -1.653646,-0.29869 -1.448257,0.21375 -1.970265,0.2147 -3.157945,0.007 -0.529129,-0.0927 -1.195726,-0.0431 -1.481047,0.10955 -0.35845,0.1918 -0.603483,0.19232 -0.793234,0.003 -0.113279,-0.11328 -0.369369,-0.18836 -0.635619,-0.19843 z m 18.158581,0.0217 -2.247924,0.0165 v 3.14037 3.14038 h 0.79375 0.79375 v -2.00194 c 0,-2.20784 0.285983,-3.02514 1.058334,-3.02514 0.772369,0 1.058333,0.8173 1.058333,3.02514 v 2.00194 h 0.79375 0.79375 v -2.75952 c 0,-3.51302 -0.04079,-3.55997 -3.043743,-3.53777 z m -32.604728,1.24075 c 0.371091,-0.0153 0.737079,0.12379 1.016476,0.46044 0.439971,0.53012 0.423088,2.33207 -0.02687,2.87424 -0.87041,1.04877 -2.647384,0.0734 -2.647384,-1.45314 0,-1.06725 0.841378,-1.84794 1.657778,-1.88154 z m 26.370483,0.0295 c 0.971151,0 1.460376,0.62062 1.460376,1.85208 0,0.54532 -0.160684,1.18496 -0.357084,1.42162 -0.893509,1.0766 -2.673221,0.13014 -2.673221,-1.42162 0,-1.02236 0.703228,-1.85208 1.569929,-1.85208 z"
       id="path5416-6"
       inkscape:connector-curvature="0" />
  </g>
</svg>
