<?xml version="1.0" encoding="UTF-8" standalone="no"?>
<!-- Generator: Adobe Illustrator 23.1.1, SVG Export Plug-In . SVG Version: 6.00 Build 0)  -->

<svg
   xmlns:dc="http://purl.org/dc/elements/1.1/"
   xmlns:cc="http://creativecommons.org/ns#"
   xmlns:rdf="http://www.w3.org/1999/02/22-rdf-syntax-ns#"
   xmlns:svg="http://www.w3.org/2000/svg"
   xmlns="http://www.w3.org/2000/svg"
   xmlns:sodipodi="http://sodipodi.sourceforge.net/DTD/sodipodi-0.dtd"
   xmlns:inkscape="http://www.inkscape.org/namespaces/inkscape"
   version="1.1"
   x="0px"
   y="0px"
   viewBox="0 0 60 47"
   xml:space="preserve"
   id="svg33"
   sodipodi:docname="extensibility.svg"
   inkscape:version="0.92.5 (2060ec1f9f, 2020-04-08)"
   width="60"
   height="47"><metadata
   id="metadata22"><rdf:RDF><cc:Work
       rdf:about=""><dc:format>image/svg+xml</dc:format><dc:type
         rdf:resource="http://purl.org/dc/dcmitype/StillImage" /><dc:title></dc:title></cc:Work></rdf:RDF></metadata><defs
   id="defs37" /><sodipodi:namedview
   id="namedview35"
   pagecolor="#ffffff"
   bordercolor="#666666"
   borderopacity="1.0"
   inkscape:pageshadow="2"
   inkscape:pageopacity="0.0"
   inkscape:pagecheckerboard="0"
   showgrid="false"
   inkscape:zoom="14.066667"
   inkscape:cx="-5.8293838"
   inkscape:cy="42.973934"
   inkscape:window-width="3696"
   inkscape:window-height="2032"
   inkscape:window-x="144"
   inkscape:window-y="54"
   inkscape:window-maximized="1"
   inkscape:current-layer="Art" />
<style
   type="text/css"
   id="style2">
	.st0{fill:none;stroke:#71F5FF;stroke-width:0.8;stroke-miterlimit:10;}
	.st1{fill:#1E2124;}
	.st2{fill:#66BDFF;}
	.st3{fill:#FFD201;}
	.st4{fill:#FED22A;}
	.st5{fill:#202020;}
	.st6{clip-path:url(#SVGID_2_);fill:none;stroke:#000000;stroke-width:2;stroke-linecap:square;stroke-miterlimit:10;}
	.st7{fill:none;stroke:#000000;stroke-width:2;stroke-linecap:square;stroke-miterlimit:10;}
	.st8{clip-path:url(#SVGID_4_);fill:none;stroke:#000000;stroke-width:2;stroke-linecap:square;stroke-miterlimit:10;}
	.st9{fill:none;stroke:#000000;stroke-width:2;stroke-miterlimit:10;}
	.st10{fill:none;stroke:#000000;stroke-width:1.8261;stroke-linecap:square;stroke-miterlimit:10;}
	.st11{fill:#1E2123;}
	.st12{fill:#202020;stroke:#000000;stroke-width:1.8261;stroke-linecap:square;stroke-miterlimit:10;}
	.st13{fill:#FFFFFF;}
	.st14{fill:none;stroke:#FFD201;stroke-width:2;stroke-miterlimit:10;}
	.st15{fill:none;stroke:#000000;stroke-width:2;stroke-linecap:round;stroke-miterlimit:10;}
	.st16{fill:#FFFFFF;stroke:#000000;stroke-width:2;stroke-miterlimit:10;}
	.st17{fill:#FFFFFF;stroke:#000000;stroke-width:2;stroke-linecap:square;stroke-miterlimit:10;}
	.st18{fill:none;stroke:#000000;stroke-width:2;stroke-linecap:round;stroke-linejoin:round;}
	.st19{fill:none;stroke:#000000;stroke-width:2;stroke-linecap:round;stroke-linejoin:round;stroke-dasharray:0,6.2815;}
	.st20{fill:none;stroke:#000000;stroke-width:3;stroke-linecap:round;stroke-linejoin:round;}
	.st21{fill:none;stroke:#000000;stroke-width:3;stroke-linecap:round;stroke-linejoin:round;stroke-dasharray:0,7.8519;}
	.st22{fill:none;stroke:#1E2023;stroke-width:4;stroke-miterlimit:10;}
	.st23{fill:#1E2023;}
	.st24{fill:none;stroke:#1E2023;stroke-width:3;stroke-miterlimit:10;}
	.st25{fill:none;stroke:#000000;stroke-width:3;stroke-miterlimit:10;}
	.st26{fill:none;stroke:#000000;stroke-width:3;stroke-linecap:square;stroke-miterlimit:10;}
	.st27{fill:#FFD02A;}
	.st28{fill:#53092F;}
	.st29{fill:#FBD00A;}
	.st30{fill:#FBD00A;stroke:#000000;stroke-width:2.7546;stroke-linejoin:bevel;stroke-miterlimit:10;}
	.st31{fill:#FFFFFF;stroke:#000000;stroke-width:3;stroke-miterlimit:10;}
	.st32{fill:none;stroke:#000000;stroke-width:4;stroke-linecap:square;stroke-miterlimit:10;}
	.st33{fill:none;stroke:#000000;stroke-width:4;stroke-linecap:round;stroke-linejoin:round;}
	.st34{fill:none;stroke:#000000;stroke-width:4;stroke-linecap:round;stroke-linejoin:round;stroke-dasharray:0,9.8149;}
	.st35{fill:none;stroke:#000000;stroke-width:1.7;stroke-miterlimit:10;}
	.st36{fill:none;stroke:#000000;stroke-width:1.6645;stroke-miterlimit:10;}
	.st37{fill:none;stroke:#FFCC00;stroke-width:2;stroke-miterlimit:10;}
	.st38{fill:#FDD108;}
	.st39{fill:none;stroke:#E490BD;stroke-width:1.6634;stroke-miterlimit:10;}
	.st40{fill:none;stroke:#000000;stroke-width:1.8829;stroke-miterlimit:10;}
	.st41{fill:none;stroke:#000000;stroke-width:1.875;stroke-linecap:square;stroke-miterlimit:10;}
	.st42{fill:#1D1F22;}
	.st43{fill:none;stroke:#E490BD;stroke-width:1.4417;stroke-miterlimit:10;}
	.st44{fill:none;stroke:#000000;stroke-width:1.6318;stroke-miterlimit:10;}
	.st45{fill:none;stroke:#71F5FF;stroke-width:0.8533;stroke-miterlimit:10;}
	.st46{fill:none;stroke:#221F1F;stroke-width:2;stroke-miterlimit:10;}
	.st47{fill:#FFCC02;}
	.st48{fill:none;stroke:#000000;stroke-width:3.1898;stroke-linecap:square;stroke-miterlimit:10;}
	.st49{fill:none;stroke:#000000;stroke-width:3.1898;stroke-miterlimit:10;}
	.st50{fill:none;stroke:#000000;stroke-width:2.7206;stroke-miterlimit:10;}
	.st51{clip-path:url(#SVGID_6_);}
	.st52{clip-path:url(#SVGID_8_);enable-background:new    ;}
	.st53{clip-path:url(#SVGID_10_);}
	.st54{clip-path:url(#SVGID_12_);}
	.st55{clip-path:url(#SVGID_14_);fill:#FFD201;}
	.st56{clip-path:url(#SVGID_16_);}
	.st57{clip-path:url(#SVGID_18_);enable-background:new    ;}
	.st58{clip-path:url(#SVGID_20_);}
	.st59{clip-path:url(#SVGID_22_);}
	.st60{clip-path:url(#SVGID_24_);}
</style>
<g
   id="Bounding_boxes"
   transform="translate(0,-13)">
</g>
<g
   id="Art"
   transform="translate(0,-13)">
	<path
   class="st2"
   d="M 31.5,54.7 H 12.8 c -2.4,0 -4.4,-2 -4.4,-4.4 V 31.6 c 0,-2.4 2,-4.4 4.4,-4.4 h 18.7 c 2.4,0 4.4,2 4.4,4.4 v 18.7 c 0,2.4 -2,4.4 -4.4,4.4 z"
   id="path5"
   style="fill:#40babd;fill-opacity:1"
   inkscape:connector-curvature="0" />
	<path
   d="m 18.3,45.4 c -2.4,0 -4.4,1.7 -4.9,4 H 6.8 v -6.6 c 2.4,-0.4 4.2,-2.5 4.2,-5 0,-2.5 -1.8,-4.6 -4.2,-5 V 26 h 3.7 V 24 H 4.8 v 10.6 h 1 0.1 C 7.6,34.6 9,36 9,37.7 9,39.4 7.6,40.8 6,40.8 L 4.8,40.7 v 10.6 h 10.4 v -1 c 0,-1.7 1.4,-3 3.1,-3 1.8,0 3.1,1.5 3.1,3.8 v 0.2 h 2 v -0.2 c 0,-3.4 -2.1,-5.7 -5.1,-5.7 z"
   id="path7"
   style="fill:#666666"
   inkscape:connector-curvature="0" />
	<path
   d="m 53.2,37.6 c 0,-1.6 1.3,-3 2.9,-3.1 H 57 V 24.1 h -8.5 c 0,-1.3 -0.6,-2.5 -1.5,-3.4 -1,-1 -2.2,-1.5 -3.6,-1.5 -2.8,0 -5.1,2.3 -5.1,5.1 v 0.2 h 2 v -0.2 c 0,-1.7 1.4,-3.1 3.1,-3.1 0.8,0 1.6,0.3 2.2,0.9 0.6,0.6 0.9,1.3 0.9,2.1 v 1.9 H 55 v 6.6 c -2.2,0.5 -3.9,2.6 -3.9,4.9 0,2.3 1.6,4.4 3.9,4.9 v 6.8 H 31.9 v -6.6 c 2.7,-0.1 4.9,-2.4 4.9,-5.1 0,-2.7 -2.2,-5 -4.9,-5.1 v -8.6 h -5.7 v 2 h 3.7 v 8.6 h 1.8 v 0 c 1.7,0 3,1.4 3,3.1 0,1.7 -1.4,3.1 -3.1,3.1 H 29.8 V 51.3 H 31.6 57 V 40.7 h -0.9 c -1.6,-0.1 -2.9,-1.5 -2.9,-3.1 z"
   id="path9"
   style="fill:#666666"
   inkscape:connector-curvature="0" />
	<g
   id="g29"
   style="fill:#666666">
		<g
   id="g15"
   style="fill:#666666">
			<g
   id="g13"
   style="fill:#666666">
				<path
   d="m 14.9,25.6 c 0.3,-0.7 0,-1.4 -0.7,-1.7 -0.7,-0.3 -1.4,0 -1.7,0.7 -0.3,0.7 0,1.4 0.7,1.7 0.7,0.2 1.4,-0.1 1.7,-0.7 z"
   id="path11"
   style="fill:#666666"
   inkscape:connector-curvature="0" />
			</g>
		</g>
		<g
   id="g21"
   style="fill:#666666">
			<g
   id="g19"
   style="fill:#666666">
				<path
   d="m 19.5,25.6 c 0.3,-0.7 0,-1.4 -0.7,-1.7 -0.7,-0.3 -1.4,0 -1.7,0.7 -0.3,0.7 0,1.4 0.7,1.7 0.7,0.2 1.4,-0.1 1.7,-0.7 z"
   id="path17"
   style="fill:#666666"
   inkscape:connector-curvature="0" />
			</g>
		</g>
		<g
   id="g27"
   style="fill:#666666">
			<g
   id="g25"
   style="fill:#666666">
				<path
   d="m 23.5,23.9 c -0.7,-0.3 -1.4,0 -1.7,0.7 -0.3,0.7 0,1.4 0.7,1.7 0.7,0.3 1.4,0 1.7,-0.7 0.2,-0.7 -0.1,-1.5 -0.7,-1.7 z"
   id="path23"
   style="fill:#666666"
   inkscape:connector-curvature="0" />
			</g>
		</g>
	</g>
</g>
<g
   id="Layer_3"
   transform="translate(0,-13)">
</g>
</svg>