<?xml version="1.0" encoding="UTF-8" standalone="no"?>
<!-- Created with Inkscape (http://www.inkscape.org/) -->

<svg
   xmlns:dc="http://purl.org/dc/elements/1.1/"
   xmlns:cc="http://creativecommons.org/ns#"
   xmlns:rdf="http://www.w3.org/1999/02/22-rdf-syntax-ns#"
   xmlns:svg="http://www.w3.org/2000/svg"
   xmlns="http://www.w3.org/2000/svg"
   xmlns:sodipodi="http://sodipodi.sourceforge.net/DTD/sodipodi-0.dtd"
   xmlns:inkscape="http://www.inkscape.org/namespaces/inkscape"
   width="34"
   height="34"
   viewBox="0 0 8.9958331 8.9958334"
   version="1.1"
   id="svg1492"
   inkscape:version="0.92.5 (2060ec1f9f, 2020-04-08)"
   sodipodi:docname="logo-icon.svg">
  <defs
     id="defs1486" />
  <sodipodi:namedview
     id="base"
     pagecolor="#ffffff"
     bordercolor="#666666"
     borderopacity="1.0"
     inkscape:pageopacity="0.0"
     inkscape:pageshadow="2"
     inkscape:zoom="5.6"
     inkscape:cx="108.3166"
     inkscape:cy="89.513477"
     inkscape:document-units="mm"
     inkscape:current-layer="layer1"
     showgrid="false"
     inkscape:window-width="3696"
     inkscape:window-height="2032"
     inkscape:window-x="144"
     inkscape:window-y="54"
     inkscape:window-maximized="1"
     units="px" />
  <metadata
     id="metadata1489">
    <rdf:RDF>
      <cc:Work
         rdf:about="">
        <dc:format>image/svg+xml</dc:format>
        <dc:type
           rdf:resource="http://purl.org/dc/dcmitype/StillImage" />
        <dc:title />
      </cc:Work>
    </rdf:RDF>
  </metadata>
  <g
     inkscape:label="Layer 1"
     inkscape:groupmode="layer"
     id="layer1"
     transform="translate(0,-288.00417)">
    <path
       style="fill:#f9f9f9;stroke-width:0.0284289"
       d="m 3.9273059,296.67376 c -1.5439155,-0.20381 -2.8971174,-1.38016 -3.31098424,-2.88192 -0.42083109,-1.40823 -0.0201165,-3.02932 1.03466544,-4.05895 1.0515176,-1.0632 2.7210842,-1.46012 4.1303551,-0.9417 1.558527,0.52277 2.6685913,2.08331 2.698732,3.7199 0.071566,1.66302 -0.9834907,3.30746 -2.5382422,3.91256 -0.6343101,0.26251 -1.3362547,0.32425 -2.0145261,0.25011 z m 1.1044069,-0.86348 c 1.2739654,-0.20003 2.3562688,-1.22072 2.6408993,-2.47691 0.1322045,-0.67798 0.087123,-1.40876 -0.2244404,-2.03462 -0.5426048,-1.21728 -1.8875224,-1.99 -3.2110013,-1.87687 -1.4707263,0.0768 -2.8226199,1.25283 -3.0127854,2.72972 -0.207103,1.23627 0.4028538,2.54296 1.4710524,3.19343 0.6842989,0.44206 1.5362429,0.59256 2.3362754,0.46525 z m -0.8502894,-0.38805 c -0.2985528,-0.0662 -0.7619081,-0.0812 -0.9309221,-0.30888 0.2956221,-0.38689 0.6154345,-0.82027 1.0945015,-0.98224 0.4394887,-0.076 0.773684,0.31505 1.0465348,0.60399 0.050216,0.13217 0.4713571,0.40331 0.2214685,0.46867 -0.449708,0.18966 -0.9460185,0.26402 -1.4315827,0.21846 z m -1.8623239,-0.9463 c -0.5593132,-0.62032 -0.7876907,-1.49233 -0.6616101,-2.31148 0.4860888,0.18229 1.0210835,0.36384 1.3503215,0.7864 0.2452571,0.42718 -0.045081,0.91326 -0.2602279,1.28902 -0.1276855,0.13604 -0.2351435,0.58858 -0.4284835,0.23606 z m 3.95896,-0.0884 c -0.2599263,-0.41649 -0.5988559,-0.94373 -0.3548471,-1.43857 0.30401,-0.39143 0.7988116,-0.57901 1.253108,-0.73613 0.2660087,0.11886 0.089296,0.70181 0.078295,0.98906 -0.1238979,0.5355 -0.3813158,1.05708 -0.799678,1.42179 -0.070954,-0.0679 -0.1205501,-0.15638 -0.1768779,-0.23615 z m -2.7209409,-0.86135 c -0.3649435,-0.45544 0.6263392,-0.44949 0.260376,0 -0.074024,0.0829 -0.1863556,0.0829 -0.260376,0 z m 1.5508492,0.0382 c -0.4141904,-0.24703 0.3281312,-0.64338 0.2905767,-0.15174 -0.034724,0.11041 -0.1723543,0.2286 -0.2905767,0.15174 z m -0.9265444,-0.25373 c -0.4633627,-0.21046 -0.5764741,-0.90515 -0.1716912,-1.22832 0.3464666,-0.35981 1.0039304,-0.14172 1.1254203,0.3266 0.1580736,0.46578 -0.2423616,1.02972 -0.7482611,0.95046 -0.070223,-0.006 -0.1409434,-0.0194 -0.205468,-0.0488 z m -0.5871803,-1.22321 c -0.406772,-0.26191 0.3539633,-0.65234 0.2938438,-0.13152 -0.02644,0.12654 -0.1804513,0.20431 -0.2938438,0.13152 z m 1.4545273,-0.0476 c -0.3061149,-0.37739 0.5185524,-0.47296 0.3254079,-0.0446 -0.059182,0.11028 -0.2412138,0.1496 -0.3254079,0.0446 z m -2.4343981,-0.52201 c -0.3290118,-0.0555 -0.9020502,-0.15869 -0.4505869,-0.52363 0.4429144,-0.5872 1.1138423,-1.03395 1.8523259,-1.11321 -0.011175,0.48631 -0.019238,1.02088 -0.2953206,1.44159 -0.2577065,0.33364 -0.7447121,0.22341 -1.1064184,0.19525 z m 2.8767401,0.006 c -0.4295763,-0.16872 -0.511209,-0.70123 -0.5450533,-1.10683 -0.0109,-0.1835 -0.016751,-0.36727 -0.025039,-0.5509 0.8552318,0.12629 1.6185437,0.68055 2.046379,1.42412 -0.2853926,0.22866 -0.8233508,0.24592 -1.2186305,0.26777 -0.08662,-0.002 -0.1747275,-0.006 -0.2576561,-0.0341 z"
       id="path1446"
       inkscape:connector-curvature="0" />
  </g>
</svg>
