<?xml version="1.0" encoding="UTF-8" standalone="no"?>
<!-- Created with Inkscape (http://www.inkscape.org/) -->

<svg
   xmlns:dc="http://purl.org/dc/elements/1.1/"
   xmlns:cc="http://creativecommons.org/ns#"
   xmlns:rdf="http://www.w3.org/1999/02/22-rdf-syntax-ns#"
   xmlns:svg="http://www.w3.org/2000/svg"
   xmlns="http://www.w3.org/2000/svg"
   xmlns:sodipodi="http://sodipodi.sourceforge.net/DTD/sodipodi-0.dtd"
   xmlns:inkscape="http://www.inkscape.org/namespaces/inkscape"
   width="141mm"
   height="115mm"
   viewBox="0 0 141 115"
   version="1.1"
   id="svg4538"
   inkscape:version="0.92.5 (2060ec1f9f, 2020-04-08)"
   sodipodi:docname="portability.svg">
  <defs
     id="defs4532" />
  <sodipodi:namedview
     id="base"
     pagecolor="#ffffff"
     bordercolor="#666666"
     borderopacity="1.0"
     inkscape:pageopacity="0.0"
     inkscape:pageshadow="2"
     inkscape:zoom="1.979899"
     inkscape:cx="343.68719"
     inkscape:cy="251.93919"
     inkscape:document-units="mm"
     inkscape:current-layer="layer1"
     showgrid="false"
     inkscape:window-width="3696"
     inkscape:window-height="2032"
     inkscape:window-x="144"
     inkscape:window-y="54"
     inkscape:window-maximized="1" />
  <metadata
     id="metadata4535">
    <rdf:RDF>
      <cc:Work
         rdf:about="">
        <dc:format>image/svg+xml</dc:format>
        <dc:type
           rdf:resource="http://purl.org/dc/dcmitype/StillImage" />
        <dc:title></dc:title>
      </cc:Work>
    </rdf:RDF>
  </metadata>
  <g
     inkscape:label="Layer 1"
     inkscape:groupmode="layer"
     id="layer1"
     transform="translate(0,-182)">
    <rect
       style="opacity:0.76300001;fill:#3aa7aa;fill-opacity:1;stroke-width:0.2976045"
       id="rect5185"
       width="101.34238"
       height="57.299103"
       x="3.5742733"
       y="238.32076"
       ry="10.903142" />
    <path
       style="fill:#666666;fill-opacity:1;stroke-width:0.11589102"
       d="m 13.30731,290.62136 c -0.656469,-0.1865 -1.428009,-0.83857 -1.609191,-1.36001 -0.193845,-0.55788 -0.197332,-60.4257 -0.0036,-60.98331 0.170413,-0.49038 0.753987,-1.02933 1.386657,-1.28064 0.453345,-0.18008 0.974772,-0.19482 7.902148,-0.22344 l 7.416774,-0.0307 0.04254,-7.9464 0.04254,-7.94641 0.351273,-0.98419 c 0.407446,-1.14154 1.52489,-3.01166 2.290394,-3.83312 1.851281,-1.9866 4.595185,-3.55463 7.503296,-4.28783 1.208784,-0.30477 3.140594,-0.58022 4.073588,-0.58085 0.584957,-4.3e-4 0.615863,-0.0147 0.616945,-0.28532 0.0038,-0.97763 0.299863,-3.2913 0.52923,-4.13727 0.956482,-3.52783 3.430553,-6.90614 6.757517,-9.22733 1.251632,-0.87326 1.724416,-1.06181 2.657033,-1.0597 2.02521,0.005 3.224,1.56486 2.327444,3.02922 -0.221414,0.36163 -0.554112,0.67973 -0.986618,0.9433 -2.415424,1.47196 -4.747429,4.32739 -5.530032,6.77123 -0.499973,1.56128 -0.56582,2.75961 -0.565161,10.28493 7.94e-4,8.14756 0.162703,11.00098 0.664998,11.71515 0.405705,0.57684 0.946217,0.8202 1.821741,0.8202 0.977009,0 1.527345,-0.16487 1.527345,-0.45753 0,-0.12654 0.0878,-0.46643 0.195207,-0.75533 0.638037,-1.71686 3.689715,-1.94043 4.698817,-0.34423 0.234109,0.37032 0.291693,0.63468 0.291693,1.33913 0,1.42115 0.573373,2.08293 1.870789,2.15921 1.159407,0.0682 1.805101,-0.41822 2.028814,-1.52823 0.151755,-0.75306 0.343414,-1.08288 0.853202,-1.46831 0.479164,-0.3623 0.952165,-0.49869 1.729336,-0.49869 0.775801,0 1.247879,0.13576 1.734119,0.49869 0.671558,0.50124 0.852731,0.97817 0.855893,2.25318 0.0028,1.11372 0.01289,1.1538 0.359365,1.41897 0.196093,0.15008 0.573085,0.34517 0.837769,0.43353 0.644982,0.21529 1.623994,0.0555 2.17357,-0.35471 l 0.391782,-0.29247 0.0028,-1.33111 c 0.0019,-1.07546 0.04941,-1.413 0.245168,-1.75753 0.479248,-0.84331 1.82604,-1.32814 2.990821,-1.07665 1.053801,0.22752 1.943581,1.17152 1.94615,2.06472 5.3e-4,0.1613 0.207299,0.40903 0.579332,0.69388 0.905375,0.69322 1.869086,0.73128 2.756233,0.10885 0.838322,-0.5882 0.813732,-0.37223 0.813732,-7.14624 v -6.1511 l 0.301754,-0.45659 c 0.893197,-1.35146 3.410887,-1.40977 4.558663,-0.10559 l 0.39012,0.44328 0.06475,3.48778 0.06484,3.48779 0.444654,0.65536 c 0.531685,0.78363 1.231257,1.28895 2.17519,1.57117 1.341106,0.40096 1.200078,1.11246 1.237025,-6.24095 0.04479,-8.92123 0.03472,-9.39757 -0.22455,-10.59289 -0.601699,-2.7737 -2.109697,-5.20556 -4.25129,-6.85579 -1.199372,-0.92418 -2.180598,-1.44905 -4.037243,-2.15961 -1.559428,-0.5968 -1.9637,-0.88153 -2.261775,-1.59294 -0.231193,-0.5518 -0.176405,-0.96381 0.208973,-1.57109 0.792174,-1.24838 2.153196,-1.51571 4.116163,-0.80852 4.540311,1.63575 7.903014,4.39108 9.845315,8.06705 0.870273,1.64708 1.351754,3.12863 1.819691,5.59933 l 0.06964,0.36763 1.202967,0.12141 c 6.62141,0.66829 11.81281,4.62754 12.86503,9.81156 0.15376,0.7576 0.18982,2.33274 0.19024,8.31168 l 5.3e-4,7.37694 8.07027,0.0303 c 7.59466,0.0286 8.09701,0.0417 8.52402,0.2241 0.64121,0.27386 0.89516,0.47186 1.21299,0.94579 l 0.2779,0.41439 0.0362,26.10667 c 0.0237,17.09864 -0.009,26.47395 -0.0953,27.17111 -0.23569,1.90784 -0.90078,3.52679 -2.01358,4.90143 -1.71495,2.11846 -4.06792,3.3383 -7.71908,4.00178 -0.90121,0.16376 -4.52319,0.17787 -52.047906,0.20257 -43.890648,0.0228 -51.152293,0.005 -51.597881,-0.12077 z m 102.30365,-4.04388 c 2.30755,-0.31766 4.04969,-1.26891 4.9132,-2.6827 0.95637,-1.56584 0.88119,0.15775 0.91203,-20.90861 0.0152,-10.41289 -0.009,-18.92948 -0.0543,-18.92577 -0.0451,0.004 -0.43208,0.35615 -0.8599,0.78319 -2.31146,2.30724 -5.79056,3.99315 -9.46392,4.58604 l -1.16679,0.18832 -0.0654,3.04523 c -0.0416,1.93904 -0.11884,3.13932 -0.21251,3.30422 -0.40728,0.71706 -1.33234,1.17304 -2.37978,1.17304 -0.79068,0 -1.31264,-0.1758 -1.84054,-0.6199 -0.76498,-0.64357 -0.75238,-0.52709 -0.75159,-6.94698 5.3e-4,-3.72683 0.0498,-6.02369 0.13463,-6.26778 0.17493,-0.50335 0.67686,-0.97025 1.32875,-1.23601 0.78929,-0.32175 1.98443,-0.23979 2.64723,0.18158 0.79665,0.50646 1.07437,1.06135 1.07437,2.14657 v 0.92196 l 0.48617,-0.0717 c 1.8855,-0.27783 4.51314,-1.58759 6.08824,-3.0347 2.72482,-2.50344 4.64696,-6.43978 4.92492,-10.08585 l 0.0781,-1.02378 H 69.140132 16.876461 l 0.07244,0.64748 c 0.443888,3.9675 1.483891,6.68268 3.521713,9.19431 0.844054,1.04031 2.481548,2.37562 3.661876,2.98611 0.824231,0.42631 2.381612,0.96262 3.195995,1.10058 0.394919,0.0668 0.411586,0.0555 0.495247,-0.34022 0.251049,-1.18744 1.459899,-2.37126 2.894399,-2.83442 0.724746,-0.23401 0.831539,-0.23867 5.471142,-0.23867 4.561118,0 4.756785,0.008 5.419516,0.22525 1.36817,0.44823 2.424757,1.31018 2.882944,2.35189 0.237582,0.54017 0.253968,0.87517 0.253968,5.19271 0,4.32792 -0.0159,4.65147 -0.255661,5.19656 -0.474806,1.07951 -1.644746,2.0005 -3.03314,2.38773 -0.59182,0.16506 -1.180807,0.18555 -5.332448,0.18555 -4.589661,0 -4.679589,-0.005 -5.417077,-0.24187 -1.051014,-0.33899 -2.155961,-1.18148 -2.63362,-2.00806 -0.375741,-0.65021 -0.376127,-0.65303 -0.416922,-3.04179 l -0.04084,-2.39098 -0.866678,-0.13558 c -3.445544,-0.539 -6.87052,-2.23215 -9.332295,-4.61347 l -0.535492,-0.51798 -0.0042,21.26347 -0.0042,21.26347 h 48.793578 c 43.208884,0 48.925344,-0.0181 49.944914,-0.1585 z M 52.589094,276.02617 c -1.443339,-0.37249 -2.665468,-1.25839 -3.197709,-2.31797 -0.292889,-0.58309 -0.2999,-0.68423 -0.340977,-4.91556 -0.02654,-2.72904 0.0085,-4.53741 0.09448,-4.90994 0.298074,-1.28851 1.296783,-2.35804 2.726211,-2.91955 l 0.717989,-0.28204 h 5.056074 5.056074 l 0.728594,0.273 c 1.500367,0.56217 2.44502,1.59599 2.711249,2.96715 0.09354,0.48178 0.127881,2.21062 0.09862,4.96537 -0.04385,4.13006 -0.05166,4.23987 -0.344189,4.8255 -0.418944,0.83885 -1.47139,1.72146 -2.509491,2.10454 l -0.81443,0.30053 -4.73196,0.0214 c -3.574973,0.0161 -4.85876,-0.0113 -5.250537,-0.11243 z m 8.331277,-7.75651 0.03416,-3.49643 h -3.177974 -3.177971 v 3.52417 3.52417 l 3.14384,-0.0278 3.14384,-0.0278 z m 13.939558,7.75148 c -1.28969,-0.32783 -2.427105,-1.10998 -3.024042,-2.0795 l -0.318937,-0.51799 -0.03717,-4.88093 c -0.03623,-4.7583 -0.0303,-4.89569 0.237866,-5.46837 0.384407,-0.82101 1.433917,-1.70475 2.485241,-2.09271 l 0.81443,-0.30053 h 4.991243 4.991254 l 0.738513,0.27662 c 1.368247,0.51252 2.397958,1.60951 2.695204,2.87136 0.184666,0.78387 0.172657,8.54865 -0.01431,9.25277 -0.323945,1.22001 -1.268873,2.16786 -2.706383,2.71475 l -0.842682,0.32059 -4.731959,0.0214 c -3.65819,0.0165 -4.855927,-0.0102 -5.278271,-0.11747 z m 8.229367,-7.75148 0.03416,-3.49643 h -3.177971 -3.177974 v 3.52417 3.52417 l 3.14384,-0.0278 3.14384,-0.0278 z m -53.698775,7.54302 c -0.736782,-0.21761 -1.123853,-0.47965 -1.460935,-0.98902 l -0.296738,-0.44841 0.0028,-6.07008 c 0.0028,-5.67994 0.01826,-6.09672 0.242185,-6.48448 0.431329,-0.7468 1.323745,-1.19341 2.376068,-1.18911 1.004205,0.005 2.097907,0.5781 2.426726,1.27355 0.09166,0.19388 0.137895,2.31405 0.137895,6.32504 v 6.03339 l -0.336649,0.53983 c -0.564068,0.90453 -1.932956,1.35146 -3.091403,1.00929 z m 10.787092,0.046 c -0.735494,-0.17697 -1.251792,-0.52663 -1.587696,-1.07527 l -0.334362,-0.54612 0.03642,-6.12176 0.03642,-6.12175 0.390654,-0.44913 c 1.227654,-1.41135 4.014028,-1.10041 4.604416,0.51383 0.09577,0.26184 0.12777,2.31227 0.100685,6.45198 l -0.03971,6.06813 -0.364863,0.44049 c -0.594444,0.71763 -1.830828,1.0829 -2.841971,0.8396 z m 55.452909,-0.0219 c -0.638937,-0.17847 -1.188212,-0.56673 -1.477618,-1.04448 -0.267558,-0.44164 -0.272508,-0.56102 -0.269711,-6.50358 0.0028,-5.64916 0.01881,-6.08163 0.240839,-6.47234 0.860531,-1.51386 3.642678,-1.57384 4.606378,-0.0993 0.26415,0.40417 0.27173,0.56066 0.3073,6.34813 0.0257,4.17863 -0.008,6.06264 -0.11036,6.3695 -0.3609,1.07103 -1.99462,1.76583 -3.296828,1.40208 z m -44.678701,-18.7883 c -0.735127,-0.18088 -1.465914,-0.79032 -1.66846,-1.3914 -0.0992,-0.29441 -0.131326,-2.25527 -0.104206,-6.35951 l 0.03924,-5.93386 0.388927,-0.50168 c 0.549243,-0.70846 1.292736,-1.01269 2.350865,-0.96198 1.009984,0.0484 1.716934,0.39746 2.106105,1.03989 0.270745,0.44691 0.274997,0.54886 0.274997,6.58942 0,5.92157 -0.0094,6.1496 -0.258096,6.53976 -0.311644,0.48817 -0.921139,0.87418 -1.621726,1.02711 -0.641546,0.14003 -0.759661,0.13629 -1.507641,-0.0478 z m 12.592101,0.0205 c -1.470949,-0.25641 -2.599442,-0.95904 -3.349832,-2.0857 l -0.344996,-0.51799 v -5.07629 -5.0763 l 0.364448,-0.55295 c 0.462346,-0.70148 1.308819,-1.38008 2.142691,-1.71774 1.047394,-0.42413 2.101015,-0.49607 6.606395,-0.45111 3.674711,0.0366 4.175755,0.062 4.730488,0.23966 1.43641,0.45986 2.637364,1.53252 3.006358,2.6852 0.289115,0.90315 0.290573,8.84396 0.0019,9.72994 -0.487003,1.4941 -1.926754,2.57396 -3.812884,2.8598 -0.984838,0.14925 -8.446045,0.1201 -9.344464,-0.0366 z m 7.843385,-7.67998 v -3.52233 l -3.143835,-0.0278 -3.14384,-0.0277 v 3.57781 3.57781 l 3.14384,-0.0277 3.143835,-0.0278 z m 14.323065,7.68108 c -1.573043,-0.27086 -2.927223,-1.20256 -3.487697,-2.3996 -0.270217,-0.57714 -0.275948,-0.70639 -0.240734,-5.4227 l 0.03604,-4.83148 0.346173,-0.59015 c 0.665853,-1.13514 2.028324,-1.94315 3.625836,-2.15029 1.040334,-0.13489 7.957609,-0.14091 8.974707,-0.008 0.418163,0.0547 1.030713,0.2034 1.361253,0.33037 0.9095,0.34944 1.99101,1.26695 2.36246,2.00424 l 0.31279,0.62083 v 4.76551 c 0,4.74486 -0.002,4.76807 -0.30085,5.36084 -0.59143,1.17037 -2.05354,2.11695 -3.638546,2.35564 -0.985205,0.14836 -8.448289,0.12011 -9.35147,-0.0354 z m 7.845865,-7.68108 v -3.52233 l -3.14383,-0.0278 -3.143851,-0.0277 v 3.57781 3.57781 l 3.143851,-0.0277 3.14383,-0.0278 z m -54.320353,0 v -3.52233 h -3.111429 -3.111429 l -0.03426,3.41794 c -0.01882,1.87987 -0.0056,3.47742 0.02917,3.55011 0.0496,0.10312 0.740754,0.12606 3.145656,0.10438 l 3.082181,-0.0277 z m -2.528041,-29.47363 c 0.06362,-6.85955 0.07011,-7.00322 0.34381,-7.53622 0.462272,-0.90031 0.900961,-1.41626 1.718366,-2.021 1.089342,-0.80592 2.109255,-1.1748 3.804167,-1.37588 l 0.486167,-0.0577 v -1.76986 -1.76985 l -0.924771,0.0728 c -3.891047,0.30638 -7.180688,2.57071 -8.154318,5.6128 -0.242372,0.75728 -0.255199,1.17676 -0.255199,8.34683 v 7.54947 l 1.458479,-0.0293 1.458478,-0.0293 z m 27.871481,6.46128 c -0.391213,-0.20691 -0.897856,-0.51672 -1.125876,-0.68848 l -0.414571,-0.31228 -0.622565,0.2109 c -2.62051,0.88769 -5.860405,0.42558 -7.83363,-1.11732 l -0.773615,-0.60491 -0.545161,0.16024 c -0.861097,0.25309 -3.463589,0.30451 -4.499271,0.0889 -2.449926,-0.51005 -4.410406,-2.04479 -5.105199,-3.99653 -0.204947,-0.57574 -0.599083,-4.65396 -0.599083,-6.19889 0,-0.46219 -0.03209,-0.84035 -0.07124,-0.84035 -0.203853,0 -0.815445,0.32525 -0.885355,0.47083 -0.04433,0.0922 -0.08056,3.10089 -0.08056,6.68589 v 6.5182 H 53.656921 65.29063 Z m 30.727094,-6.1055 c 0,-4.6835 -0.04131,-6.54446 -0.149055,-6.70796 -0.151908,-0.23063 -0.356958,-0.37725 -0.531572,-0.3801 -0.05345,-7.9e-4 -0.09723,1.42179 -0.09723,3.16147 0,3.44208 -0.03106,3.6167 -0.752319,4.23136 -0.679659,0.57918 -1.180833,0.68143 -3.352435,0.68394 -2.2026,0.003 -3.573666,-0.16183 -4.657756,-0.55843 l -0.700215,-0.25617 -0.07839,0.27894 c -0.243332,0.86551 -0.379674,1.17487 -0.802328,1.82041 -1.454817,2.22203 -4.428768,3.44684 -7.466867,3.07518 -0.573225,-0.0701 -1.317045,-0.21093 -1.652942,-0.31291 l -0.610716,-0.18544 -0.496481,0.40855 c -0.27306,0.22469 -0.846029,0.59176 -1.273257,0.81569 l -0.776777,0.40715 h 11.699195 11.699185 z m 8.037852,-0.77454 c 0,-7.88418 -0.0169,-8.1014 -0.73738,-9.46928 -1.22078,-2.31772 -3.81041,-3.99929 -6.882306,-4.46896 -1.602256,-0.24498 -1.455309,-0.4023 -1.455309,1.55796 v 1.70467 l 0.486156,0.0646 c 2.455409,0.32637 4.287809,1.52248 5.232129,3.4153 l 0.31011,0.62158 0.0375,6.91517 0.0375,6.91516 h 1.48571 1.48571 z"
       id="path4640-3"
       inkscape:connector-curvature="0" />
  </g>
</svg>
