<?xml version="1.0" encoding="UTF-8" standalone="no"?>
<!-- Created with Inkscape (http://www.inkscape.org/) -->

<svg
   xmlns:dc="http://purl.org/dc/elements/1.1/"
   xmlns:cc="http://creativecommons.org/ns#"
   xmlns:rdf="http://www.w3.org/1999/02/22-rdf-syntax-ns#"
   xmlns:svg="http://www.w3.org/2000/svg"
   xmlns="http://www.w3.org/2000/svg"
   xmlns:sodipodi="http://sodipodi.sourceforge.net/DTD/sodipodi-0.dtd"
   xmlns:inkscape="http://www.inkscape.org/namespaces/inkscape"
   width="59mm"
   height="65mm"
   viewBox="0 0 59 65"
   version="1.1"
   id="svg8"
   inkscape:version="0.92.5 (2060ec1f9f, 2020-04-08)"
   sodipodi:docname="profile.svg">
  <defs
     id="defs2" />
  <sodipodi:namedview
     id="base"
     pagecolor="#ffffff"
     bordercolor="#666666"
     borderopacity="1.0"
     inkscape:pageopacity="0.0"
     inkscape:pageshadow="2"
     inkscape:zoom="1.4"
     inkscape:cx="278.57143"
     inkscape:cy="554.28571"
     inkscape:document-units="mm"
     inkscape:current-layer="layer1"
     showgrid="false"
     inkscape:window-width="3696"
     inkscape:window-height="2032"
     inkscape:window-x="144"
     inkscape:window-y="54"
     inkscape:window-maximized="1" />
  <metadata
     id="metadata5">
    <rdf:RDF>
      <cc:Work
         rdf:about="">
        <dc:format>image/svg+xml</dc:format>
        <dc:type
           rdf:resource="http://purl.org/dc/dcmitype/StillImage" />
        <dc:title></dc:title>
      </cc:Work>
    </rdf:RDF>
  </metadata>
  <g
     inkscape:label="Layer 1"
     inkscape:groupmode="layer"
     id="layer1"
     transform="translate(0,-232)">
    <path
       style="fill:#4d4d4d;stroke-width:0.05094498"
       d="m 2.364498,293.42528 0.013255,-2.18173 0.991974,-0.6152 c 0.5455875,-0.33837 1.8265803,-1.16817 2.8466529,-1.844 1.8337217,-1.21489 3.2177446,-2.07742 4.0757694,-2.54004 0.243063,-0.13105 0.563313,-0.34287 0.711664,-0.47072 0.36,-0.31023 1.254009,-0.9018 1.969102,-1.30296 0.319575,-0.17927 0.69701,-0.43801 0.838744,-0.57498 0.409848,-0.39604 2.457352,-1.37363 4.044766,-1.93118 0.586221,-0.20591 0.797426,-0.33772 1.145528,-0.71495 0.407544,-0.44163 1.000375,-1.25046 1.166489,-1.59148 0.134693,-0.27651 0.135961,-0.2879 0.05876,-0.52743 -0.04339,-0.13465 -0.229409,-0.81921 -0.413368,-1.52125 -0.553347,-2.11171 -0.989813,-3.3953 -1.154516,-3.3953 -0.0372,0 -0.151796,0.0575 -0.254656,0.12765 -0.10286,0.0702 -0.20539,0.12739 -0.227841,0.1271 -0.02246,-3.9e-4 -0.120883,-0.0835 -0.218736,-0.18473 -0.09786,-0.1013 -0.349252,-0.28501 -0.558665,-0.40825 -0.644524,-0.37929 -0.850747,-0.62802 -1.298667,-1.56638 -0.16528,-0.34624 -0.304492,-0.72668 -0.353049,-0.9648 -0.04409,-0.21622 -0.116607,-0.48044 -0.161138,-0.58716 -0.134288,-0.32179 -0.307993,-0.93974 -0.678887,-2.41506 -0.394931,-1.57096 -0.66076,-2.48632 -0.941515,-3.24206 -0.400289,-1.07751 -0.434887,-1.20393 -0.486405,-1.77735 -0.05584,-0.6216 -0.02333,-1.22854 0.0894,-1.66901 0.03953,-0.15445 0.239837,-0.61396 0.445124,-1.02114 0.218934,-0.43425 0.399465,-0.86699 0.436656,-1.04667 0.07468,-0.36083 0.04236,-1.02255 -0.102404,-2.09629 -0.138282,-1.02567 -0.209034,-2.50283 -0.169572,-3.54036 l 0.03379,-0.88832 -0.135277,0.0341 c -0.0744,0.0187 -0.238199,0.0482 -0.36399,0.0656 -0.290803,0.04 -0.295953,-0.0176 -0.0445,-0.49825 0.184817,-0.35327 0.25067,-0.40546 0.365734,-0.28988 0.04871,0.0489 0.05903,-0.0481 0.04829,-0.45371 -0.01357,-0.51208 -0.01241,-0.5176 0.152312,-0.73873 0.417155,-0.55999 0.550005,-0.98727 0.624905,-2.0098 0.0288,-0.39314 0.09025,-0.87563 0.13658,-1.0722 0.04641,-0.19695 0.08922,-0.61659 0.09536,-0.93474 l 0.01115,-0.57733 0.209744,-0.32336 c 0.11536,-0.17784 0.250542,-0.43499 0.300407,-0.57144 0.04986,-0.13646 0.269764,-0.53524 0.48867,-0.88619 0.218905,-0.35093 0.482645,-0.82295 0.586087,-1.0489 0.120862,-0.26401 0.300414,-0.53776 0.502413,-0.76599 0.31572,-0.35673 0.372564,-0.43629 0.983561,-1.37653 0.811078,-1.24814 2.04856,-2.37126 3.113768,-2.82601 1.695019,-0.72362 3.974836,-1.25292 6.328406,-1.46927 1.10707,-0.10176 3.723555,-0.11363 4.879975,-0.0221 2.359071,0.18664 4.881801,0.58486 7.631042,1.20458 1.200248,0.27054 1.395406,0.34073 2.080411,0.74829 0.292277,0.17389 0.702978,0.3894 0.91266,0.4789 0.209682,0.0895 0.50612,0.24576 0.65875,0.3472 0.152619,0.10145 0.420038,0.23209 0.594254,0.29033 0.481496,0.16093 1.09004,0.5797 2.025732,1.394 0.546959,0.47601 0.810744,0.77968 1.204009,1.38607 0.3611,0.55681 0.861995,1.13291 1.129228,1.2988 0.131453,0.0816 0.254525,0.10527 0.547369,0.10527 0.432423,0 0.499791,0.0418 0.499791,0.3103 0,0.1888 -0.06027,0.27253 -0.272293,0.37825 -0.05997,0.0299 -0.115209,0.0997 -0.122848,0.15517 -0.0078,0.0578 0.182695,0.40552 0.44732,0.81563 0.253665,0.39315 0.574816,0.94456 0.713673,1.22537 0.138847,0.28082 0.343557,0.67141 0.454899,0.86798 0.227195,0.40111 0.307231,0.65074 0.433791,1.35302 0.04806,0.26677 0.188701,0.8026 0.312496,1.19074 0.290412,0.91053 0.371288,1.34892 0.371288,2.01265 0,0.47353 -0.01602,0.57339 -0.130818,0.81718 -0.10214,0.21687 -0.140195,0.40275 -0.17364,0.84818 -0.02354,0.31374 -0.08957,0.76537 -0.14669,1.00362 -0.116147,0.48447 -0.102482,0.61269 0.114174,1.07139 0.162963,0.345 0.163608,0.37511 0.01241,0.5778 -0.161909,0.21701 -0.310875,0.6549 -0.456354,1.3415 l -0.119986,0.56627 0.371688,0.28881 c 0.204437,0.15884 0.447173,0.39799 0.539428,0.53144 l 0.16774,0.24266 -0.0068,1.4296 c -0.0169,3.30011 -0.334005,5.86763 -0.903293,7.31252 -0.06388,0.16225 -0.231659,0.54772 -0.372743,0.85662 -0.141074,0.30889 -0.301996,0.70094 -0.357594,0.87122 -0.216734,0.66382 -0.546197,1.08913 -1.256549,1.62206 -0.482991,0.36236 -0.944014,0.58669 -1.60125,0.77914 -0.265601,0.0778 -0.500367,0.15591 -0.52169,0.17364 -0.02129,0.0177 -0.06163,0.35245 -0.08967,0.74383 -0.171393,2.39816 -0.648933,4.37688 -1.518517,6.29197 -0.425567,0.93724 -0.527238,1.38304 -0.41115,1.8028 0.127966,0.46271 0.960472,1.47187 1.769146,2.14456 0.525841,0.43741 1.114371,0.75614 1.636012,0.88601 0.84035,0.20922 1.685447,0.86243 3.079046,2.37995 1.387524,1.5109 1.521585,1.67459 2.946568,3.59758 1.099514,1.48377 1.699082,2.25897 2.01318,2.60289 0.152737,0.16722 1.26366,1.87738 1.26366,1.94527 0,0.0107 -12.512806,0.0195 -27.806239,0.0195 H 2.3512433 Z"
       id="path32"
       inkscape:connector-curvature="0" />
  </g>
</svg>
